<svg width="133" height="52" viewBox="0 0 133 52" fill="none" xmlns="http://www.w3.org/2000/svg">
<path d="M2.28 22C2.104 22 1.96 21.944 1.848 21.832C1.736 21.72 1.68 21.576 1.68 21.4V5.8C1.68 5.624 1.736 5.48 1.848 5.368C1.96 5.256 2.104 5.2 2.28 5.2H5.376C5.552 5.2 5.696 5.256 5.808 5.368C5.92 5.48 5.976 5.624 5.976 5.8V11.584H7.44L10.992 5.656C11.072 5.528 11.184 5.424 11.328 5.344C11.472 5.248 11.656 5.2 11.88 5.2H15.336C15.496 5.2 15.624 5.256 15.72 5.368C15.816 5.464 15.864 5.576 15.864 5.704C15.864 5.8 15.832 5.896 15.768 5.992L11.304 13.288L16.2 21.184C16.248 21.248 16.272 21.336 16.272 21.448C16.272 21.608 16.216 21.744 16.104 21.856C16.008 21.952 15.88 22 15.72 22H12.168C11.912 22 11.72 21.944 11.592 21.832C11.48 21.72 11.392 21.624 11.328 21.544L7.608 15.424H5.976V21.4C5.976 21.576 5.92 21.72 5.808 21.832C5.696 21.944 5.552 22 5.376 22H2.28ZM18.2488 26.584C18.0728 26.584 17.9208 26.52 17.7928 26.392C17.6808 26.28 17.6248 26.144 17.6248 25.984V24.04C17.6248 23.864 17.6808 23.72 17.7928 23.608C17.9208 23.496 18.0728 23.44 18.2488 23.44H19.0648C19.3688 23.44 19.6168 23.384 19.8088 23.272C20.0008 23.16 20.1688 22.976 20.3128 22.72C20.4728 22.48 20.6408 22.144 20.8168 21.712L25.6168 10.024C25.6648 9.88 25.7448 9.76 25.8568 9.664C25.9688 9.568 26.1288 9.52 26.3368 9.52H28.9048C29.0488 9.52 29.1688 9.576 29.2648 9.688C29.3768 9.784 29.4328 9.896 29.4328 10.024C29.4328 10.056 29.4248 10.104 29.4088 10.168C29.4088 10.216 29.3928 10.272 29.3608 10.336L24.8008 21.328C24.4808 22.112 24.1448 22.824 23.7928 23.464C23.4568 24.104 23.0888 24.656 22.6888 25.12C22.2888 25.6 21.8168 25.96 21.2728 26.2C20.7448 26.456 20.1288 26.584 19.4248 26.584H18.2488ZM21.0808 21.736L16.1608 10.336C16.1128 10.224 16.0888 10.128 16.0888 10.048C16.1208 9.904 16.1848 9.784 16.2808 9.688C16.3768 9.576 16.5048 9.52 16.6648 9.52H19.3528C19.5608 9.52 19.7128 9.576 19.8088 9.688C19.9208 9.784 20.0008 9.896 20.0488 10.024L23.4808 18.808L21.0808 21.736ZM31.8754 26.56C31.6994 26.56 31.5554 26.504 31.4434 26.392C31.3314 26.28 31.2754 26.136 31.2754 25.96V10.12C31.2754 9.944 31.3314 9.8 31.4434 9.688C31.5554 9.576 31.6994 9.52 31.8754 9.52H34.5874C34.7474 9.52 34.8834 9.576 34.9954 9.688C35.1234 9.8 35.1874 9.944 35.1874 10.12V11.008C35.5554 10.512 36.0434 10.104 36.6514 9.784C37.2594 9.448 38.0114 9.28 38.9074 9.28C39.7074 9.28 40.4114 9.408 41.0194 9.664C41.6274 9.904 42.1474 10.264 42.5794 10.744C43.0114 11.224 43.3474 11.808 43.5874 12.496C43.8434 13.184 43.9874 13.976 44.0194 14.872C44.0354 15.192 44.0434 15.488 44.0434 15.76C44.0434 16.032 44.0354 16.328 44.0194 16.648C43.9874 17.512 43.8514 18.288 43.6114 18.976C43.3714 19.664 43.0354 20.248 42.6034 20.728C42.1714 21.208 41.6434 21.584 41.0194 21.856C40.4114 22.112 39.7074 22.24 38.9074 22.24C38.1234 22.24 37.4354 22.104 36.8434 21.832C36.2674 21.544 35.7874 21.144 35.4034 20.632V25.96C35.4034 26.136 35.3474 26.28 35.2354 26.392C35.1234 26.504 34.9794 26.56 34.8034 26.56H31.8754ZM37.6114 19.024C38.1554 19.024 38.5794 18.912 38.8834 18.688C39.1874 18.464 39.4034 18.16 39.5314 17.776C39.6754 17.392 39.7634 16.968 39.7954 16.504C39.8274 16.008 39.8274 15.512 39.7954 15.016C39.7634 14.552 39.6754 14.128 39.5314 13.744C39.4034 13.36 39.1874 13.056 38.8834 12.832C38.5794 12.608 38.1554 12.496 37.6114 12.496C37.0834 12.496 36.6594 12.616 36.3394 12.856C36.0194 13.08 35.7874 13.376 35.6434 13.744C35.4994 14.112 35.4194 14.512 35.4034 14.944C35.3874 15.248 35.3794 15.544 35.3794 15.832C35.3794 16.12 35.3874 16.424 35.4034 16.744C35.4194 17.144 35.5074 17.52 35.6674 17.872C35.8274 18.208 36.0674 18.488 36.3874 18.712C36.7074 18.92 37.1154 19.024 37.6114 19.024ZM52.152 22.24C50.968 22.24 49.92 22.024 49.008 21.592C48.096 21.16 47.368 20.536 46.824 19.72C46.296 18.888 46.008 17.896 45.96 16.744C45.944 16.488 45.936 16.168 45.936 15.784C45.936 15.384 45.944 15.056 45.96 14.8C46.008 13.632 46.296 12.64 46.824 11.824C47.352 10.992 48.072 10.36 48.984 9.928C49.912 9.496 50.968 9.28 52.152 9.28C53.256 9.28 54.2 9.44 54.984 9.76C55.768 10.064 56.408 10.448 56.904 10.912C57.4 11.376 57.768 11.856 58.008 12.352C58.264 12.832 58.4 13.256 58.416 13.624C58.432 13.784 58.376 13.928 58.248 14.056C58.12 14.168 57.976 14.224 57.816 14.224H54.768C54.592 14.224 54.456 14.184 54.36 14.104C54.264 14.024 54.176 13.904 54.096 13.744C53.904 13.248 53.656 12.896 53.352 12.688C53.064 12.48 52.688 12.376 52.224 12.376C51.584 12.376 51.088 12.584 50.736 13C50.4 13.416 50.216 14.056 50.184 14.92C50.168 15.56 50.168 16.128 50.184 16.624C50.216 17.504 50.4 18.144 50.736 18.544C51.088 18.944 51.584 19.144 52.224 19.144C52.72 19.144 53.112 19.04 53.4 18.832C53.688 18.624 53.92 18.272 54.096 17.776C54.176 17.616 54.264 17.496 54.36 17.416C54.456 17.336 54.592 17.296 54.768 17.296H57.816C57.976 17.296 58.12 17.36 58.248 17.488C58.376 17.6 58.432 17.736 58.416 17.896C58.4 18.168 58.32 18.488 58.176 18.856C58.032 19.208 57.808 19.584 57.504 19.984C57.2 20.384 56.8 20.76 56.304 21.112C55.824 21.448 55.24 21.72 54.552 21.928C53.864 22.136 53.064 22.24 52.152 22.24ZM66.3323 22.24C64.4443 22.24 62.9403 21.728 61.8203 20.704C60.7003 19.68 60.1163 18.16 60.0683 16.144C60.0683 16.032 60.0683 15.888 60.0683 15.712C60.0683 15.536 60.0683 15.4 60.0683 15.304C60.1163 14.04 60.3963 12.96 60.9083 12.064C61.4363 11.152 62.1563 10.464 63.0683 10C63.9963 9.52 65.0763 9.28 66.3083 9.28C67.7163 9.28 68.8763 9.56 69.7883 10.12C70.7163 10.68 71.4123 11.44 71.8763 12.4C72.3403 13.36 72.5723 14.456 72.5723 15.688V16.264C72.5723 16.44 72.5083 16.584 72.3802 16.696C72.2683 16.808 72.1323 16.864 71.9723 16.864H64.2923C64.2923 16.88 64.2923 16.904 64.2923 16.936C64.2923 16.968 64.2923 17 64.2923 17.032C64.3083 17.496 64.3883 17.92 64.5323 18.304C64.6763 18.688 64.9003 18.992 65.2043 19.216C65.5083 19.44 65.8763 19.552 66.3083 19.552C66.6283 19.552 66.8923 19.504 67.1003 19.408C67.3243 19.296 67.5083 19.176 67.6523 19.048C67.7963 18.904 67.9083 18.784 67.9883 18.688C68.1323 18.528 68.2443 18.432 68.3243 18.4C68.4203 18.352 68.5643 18.328 68.7563 18.328H71.7323C71.8923 18.328 72.0203 18.376 72.1163 18.472C72.2283 18.552 72.2763 18.672 72.2603 18.832C72.2443 19.104 72.1083 19.432 71.8523 19.816C71.5963 20.2 71.2203 20.584 70.7243 20.968C70.2443 21.336 69.6363 21.64 68.9003 21.88C68.1643 22.12 67.3083 22.24 66.3323 22.24ZM64.2923 14.488H68.3483V14.44C68.3483 13.928 68.2683 13.48 68.1083 13.096C67.9643 12.712 67.7323 12.416 67.4123 12.208C67.1083 12 66.7403 11.896 66.3083 11.896C65.8763 11.896 65.5083 12 65.2043 12.208C64.9163 12.416 64.6923 12.712 64.5323 13.096C64.3723 13.48 64.2923 13.928 64.2923 14.44V14.488ZM80.5583 22.24C79.3743 22.24 78.3263 22.024 77.4143 21.592C76.5023 21.16 75.7743 20.536 75.2303 19.72C74.7023 18.888 74.4143 17.896 74.3663 16.744C74.3503 16.488 74.3423 16.168 74.3423 15.784C74.3423 15.384 74.3503 15.056 74.3663 14.8C74.4143 13.632 74.7023 12.64 75.2303 11.824C75.7583 10.992 76.4783 10.36 77.3903 9.928C78.3183 9.496 79.3743 9.28 80.5583 9.28C81.6623 9.28 82.6063 9.44 83.3903 9.76C84.1743 10.064 84.8143 10.448 85.3103 10.912C85.8063 11.376 86.1743 11.856 86.4143 12.352C86.6703 12.832 86.8063 13.256 86.8223 13.624C86.8383 13.784 86.7823 13.928 86.6543 14.056C86.5263 14.168 86.3823 14.224 86.2223 14.224H83.1743C82.9983 14.224 82.8623 14.184 82.7663 14.104C82.6703 14.024 82.5823 13.904 82.5023 13.744C82.3103 13.248 82.0623 12.896 81.7583 12.688C81.4703 12.48 81.0943 12.376 80.6303 12.376C79.9903 12.376 79.4943 12.584 79.1423 13C78.8063 13.416 78.6223 14.056 78.5903 14.92C78.5743 15.56 78.5743 16.128 78.5903 16.624C78.6223 17.504 78.8063 18.144 79.1423 18.544C79.4943 18.944 79.9903 19.144 80.6303 19.144C81.1263 19.144 81.5183 19.04 81.8063 18.832C82.0943 18.624 82.3263 18.272 82.5023 17.776C82.5823 17.616 82.6703 17.496 82.7663 17.416C82.8623 17.336 82.9983 17.296 83.1743 17.296H86.2223C86.3823 17.296 86.5263 17.36 86.6543 17.488C86.7823 17.6 86.8383 17.736 86.8223 17.896C86.8063 18.168 86.7263 18.488 86.5823 18.856C86.4383 19.208 86.2143 19.584 85.9103 19.984C85.6063 20.384 85.2063 20.76 84.7103 21.112C84.2303 21.448 83.6463 21.72 82.9583 21.928C82.2703 22.136 81.4703 22.24 80.5583 22.24ZM93.5385 22C93.3625 22 93.2185 21.944 93.1065 21.832C92.9945 21.72 92.9385 21.576 92.9385 21.4V8.968H88.6665C88.4905 8.968 88.3465 8.912 88.2345 8.8C88.1225 8.672 88.0665 8.528 88.0665 8.368V5.8C88.0665 5.624 88.1225 5.48 88.2345 5.368C88.3465 5.256 88.4905 5.2 88.6665 5.2H101.579C101.755 5.2 101.899 5.256 102.011 5.368C102.123 5.48 102.179 5.624 102.179 5.8V8.368C102.179 8.528 102.123 8.672 102.011 8.8C101.899 8.912 101.755 8.968 101.579 8.968H97.3065V21.4C97.3065 21.576 97.2505 21.72 97.1385 21.832C97.0265 21.944 96.8825 22 96.7065 22H93.5385ZM110 22.24C108.656 22.24 107.52 22.024 106.592 21.592C105.68 21.16 104.976 20.544 104.48 19.744C104 18.928 103.728 17.96 103.664 16.84C103.648 16.52 103.64 16.16 103.64 15.76C103.64 15.344 103.648 14.984 103.664 14.68C103.728 13.544 104.016 12.576 104.528 11.776C105.04 10.976 105.752 10.36 106.664 9.928C107.592 9.496 108.704 9.28 110 9.28C111.312 9.28 112.424 9.496 113.336 9.928C114.264 10.36 114.984 10.976 115.496 11.776C116.008 12.576 116.296 13.544 116.36 14.68C116.376 14.984 116.384 15.344 116.384 15.76C116.384 16.16 116.376 16.52 116.36 16.84C116.296 17.96 116.016 18.928 115.52 19.744C115.04 20.544 114.336 21.16 113.408 21.592C112.496 22.024 111.36 22.24 110 22.24ZM110 19.312C110.72 19.312 111.24 19.096 111.56 18.664C111.896 18.232 112.088 17.584 112.136 16.72C112.152 16.48 112.16 16.16 112.16 15.76C112.16 15.36 112.152 15.04 112.136 14.8C112.088 13.952 111.896 13.312 111.56 12.88C111.24 12.432 110.72 12.208 110 12.208C109.296 12.208 108.776 12.432 108.44 12.88C108.104 13.312 107.92 13.952 107.888 14.8C107.872 15.04 107.864 15.36 107.864 15.76C107.864 16.16 107.872 16.48 107.888 16.72C107.92 17.584 108.104 18.232 108.44 18.664C108.776 19.096 109.296 19.312 110 19.312ZM119.344 22C119.168 22 119.024 21.944 118.912 21.832C118.8 21.72 118.744 21.576 118.744 21.4V10.12C118.744 9.944 118.8 9.8 118.912 9.688C119.024 9.576 119.168 9.52 119.344 9.52H130.336C130.512 9.52 130.656 9.576 130.768 9.688C130.88 9.8 130.936 9.944 130.936 10.12V21.4C130.936 21.576 130.88 21.72 130.768 21.832C130.656 21.944 130.512 22 130.336 22H127.504C127.344 22 127.2 21.944 127.072 21.832C126.96 21.72 126.904 21.576 126.904 21.4V12.664H122.776V21.4C122.776 21.576 122.712 21.72 122.584 21.832C122.472 21.944 122.336 22 122.176 22H119.344Z" fill="#AFB2BF"/>
<g clip-path="url(#clip0_206_1836)">
<path d="M6.10203 39.6056C6.94646 38.0907 7.36868 37.3333 7.99992 37.3333C8.63116 37.3333 9.05338 38.0907 9.89781 39.6056L10.1163 39.9975C10.3562 40.4279 10.4762 40.6432 10.6633 40.7852C10.8504 40.9272 11.0834 40.9799 11.5493 41.0853L11.9736 41.1813C13.6133 41.5524 14.4332 41.7379 14.6283 42.3651C14.8234 42.9924 14.2644 43.646 13.1465 44.9533L12.8573 45.2915C12.5396 45.6629 12.3808 45.8487 12.3093 46.0785C12.2379 46.3082 12.2619 46.5561 12.3099 47.0517L12.3537 47.5029C12.5227 49.247 12.6072 50.1191 12.0965 50.5068C11.5858 50.8945 10.8181 50.541 9.2828 49.8341L8.8856 49.6512C8.4493 49.4503 8.23115 49.3499 7.99992 49.3499C7.76868 49.3499 7.55054 49.4503 7.11424 49.6512L6.71703 49.8341C5.1817 50.541 4.41404 50.8945 3.90335 50.5068C3.39267 50.1191 3.47717 49.247 3.64618 47.5029L3.68991 47.0517C3.73794 46.5561 3.76195 46.3082 3.69049 46.0785C3.61904 45.8487 3.4602 45.6629 3.14253 45.2915L2.85332 44.9533C1.73542 43.646 1.17647 42.9924 1.37153 42.3651C1.5666 41.7379 2.38649 41.5524 4.02628 41.1813L4.45051 41.0853C4.91649 40.9799 5.14947 40.9272 5.33655 40.7852C5.52362 40.6432 5.6436 40.4279 5.88356 39.9975L6.10203 39.6056Z" fill="#FDF41A" stroke="#FDF41A" stroke-width="1.5"/>
</g>
<g clip-path="url(#clip1_206_1836)">
<path d="M30.102 39.6056C30.9465 38.0907 31.3687 37.3333 31.9999 37.3333C32.6312 37.3333 33.0534 38.0907 33.8978 39.6056L34.1163 39.9975C34.3562 40.4279 34.4762 40.6432 34.6633 40.7852C34.8504 40.9272 35.0834 40.9799 35.5493 41.0853L35.9736 41.1813C37.6133 41.5524 38.4332 41.7379 38.6283 42.3651C38.8234 42.9924 38.2644 43.646 37.1465 44.9533L36.8573 45.2915C36.5396 45.6629 36.3808 45.8487 36.3093 46.0785C36.2379 46.3082 36.2619 46.5561 36.3099 47.0517L36.3537 47.5029C36.5227 49.247 36.6072 50.1191 36.0965 50.5068C35.5858 50.8945 34.8181 50.541 33.2828 49.8341L32.8856 49.6512C32.4493 49.4503 32.2312 49.3499 31.9999 49.3499C31.7687 49.3499 31.5505 49.4503 31.1142 49.6512L30.717 49.8341C29.1817 50.541 28.414 50.8945 27.9034 50.5068C27.3927 50.1191 27.4772 49.247 27.6462 47.5029L27.6899 47.0517C27.7379 46.5561 27.7619 46.3082 27.6905 46.0785C27.619 45.8487 27.4602 45.6629 27.1425 45.2915L26.8533 44.9533C25.7354 43.646 25.1765 42.9924 25.3715 42.3651C25.5666 41.7379 26.3865 41.5524 28.0263 41.1813L28.4505 41.0853C28.9165 40.9799 29.1495 40.9272 29.3365 40.7852C29.5236 40.6432 29.6436 40.4279 29.8836 39.9975L30.102 39.6056Z" fill="#FDF41A" stroke="#FDF41A" stroke-width="1.5"/>
</g>
<g clip-path="url(#clip2_206_1836)">
<path d="M54.102 39.6056C54.9465 38.0907 55.3687 37.3333 55.9999 37.3333C56.6312 37.3333 57.0534 38.0907 57.8978 39.6056L58.1163 39.9975C58.3562 40.4279 58.4762 40.6432 58.6633 40.7852C58.8504 40.9272 59.0834 40.9799 59.5493 41.0853L59.9736 41.1813C61.6133 41.5524 62.4332 41.7379 62.6283 42.3651C62.8234 42.9924 62.2644 43.646 61.1465 44.9533L60.8573 45.2915C60.5396 45.6629 60.3808 45.8487 60.3093 46.0785C60.2379 46.3082 60.2619 46.5561 60.3099 47.0517L60.3537 47.5029C60.5227 49.247 60.6072 50.1191 60.0965 50.5068C59.5858 50.8945 58.8181 50.541 57.2828 49.8341L56.8856 49.6512C56.4493 49.4503 56.2312 49.3499 55.9999 49.3499C55.7687 49.3499 55.5505 49.4503 55.1142 49.6512L54.717 49.8341C53.1817 50.541 52.414 50.8945 51.9034 50.5068C51.3927 50.1191 51.4772 49.247 51.6462 47.5029L51.6899 47.0517C51.7379 46.5561 51.7619 46.3082 51.6905 46.0785C51.619 45.8487 51.4602 45.6629 51.1425 45.2915L50.8533 44.9533C49.7354 43.646 49.1765 42.9924 49.3715 42.3651C49.5666 41.7379 50.3865 41.5524 52.0263 41.1813L52.4505 41.0853C52.9165 40.9799 53.1495 40.9272 53.3365 40.7852C53.5236 40.6432 53.6436 40.4279 53.8836 39.9975L54.102 39.6056Z" fill="#FDF41A" stroke="#FDF41A" stroke-width="1.5"/>
</g>
<g clip-path="url(#clip3_206_1836)">
<path d="M78.102 39.6056C78.9465 38.0907 79.3687 37.3333 79.9999 37.3333C80.6312 37.3333 81.0534 38.0907 81.8978 39.6056L82.1163 39.9975C82.3562 40.4279 82.4762 40.6432 82.6633 40.7852C82.8504 40.9272 83.0834 40.9799 83.5493 41.0853L83.9736 41.1813C85.6133 41.5524 86.4332 41.7379 86.6283 42.3651C86.8234 42.9924 86.2644 43.646 85.1465 44.9533L84.8573 45.2915C84.5396 45.6629 84.3808 45.8487 84.3093 46.0785C84.2379 46.3082 84.2619 46.5561 84.3099 47.0517L84.3537 47.5029C84.5227 49.247 84.6072 50.1191 84.0965 50.5068C83.5858 50.8945 82.8181 50.541 81.2828 49.8341L80.8856 49.6512C80.4493 49.4503 80.2312 49.3499 79.9999 49.3499C79.7687 49.3499 79.5505 49.4503 79.1142 49.6512L78.717 49.8341C77.1817 50.541 76.414 50.8945 75.9034 50.5068C75.3927 50.1191 75.4772 49.247 75.6462 47.5029L75.6899 47.0517C75.7379 46.5561 75.7619 46.3082 75.6905 46.0785C75.619 45.8487 75.4602 45.6629 75.1425 45.2915L74.8533 44.9533C73.7354 43.646 73.1765 42.9924 73.3715 42.3651C73.5666 41.7379 74.3865 41.5524 76.0263 41.1813L76.4505 41.0853C76.9165 40.9799 77.1495 40.9272 77.3365 40.7852C77.5236 40.6432 77.6436 40.4279 77.8836 39.9975L78.102 39.6056Z" fill="#FDF41A" stroke="#FDF41A" stroke-width="1.5"/>
</g>
<g clip-path="url(#clip4_206_1836)">
<path d="M102.102 39.6056C102.946 38.0907 103.369 37.3333 104 37.3333C104.631 37.3333 105.053 38.0907 105.898 39.6056L106.116 39.9975C106.356 40.4279 106.476 40.6432 106.663 40.7852C106.85 40.9272 107.083 40.9799 107.549 41.0853L107.974 41.1813C109.613 41.5524 110.433 41.7379 110.628 42.3651C110.823 42.9924 110.264 43.646 109.147 44.9533L108.857 45.2915C108.54 45.6629 108.381 45.8487 108.309 46.0785C108.238 46.3082 108.262 46.5561 108.31 47.0517L108.354 47.5029C108.523 49.247 108.607 50.1191 108.096 50.5068C107.586 50.8945 106.818 50.541 105.283 49.8341L104.886 49.6512C104.449 49.4503 104.231 49.3499 104 49.3499C103.769 49.3499 103.551 49.4503 103.114 49.6512L102.717 49.8341C101.182 50.541 100.414 50.8945 99.9034 50.5068C99.3927 50.1191 99.4772 49.247 99.6462 47.5029L99.6899 47.0517C99.7379 46.5561 99.7619 46.3082 99.6905 46.0785C99.619 45.8487 99.4602 45.6629 99.1425 45.2915L98.8533 44.9533C97.7354 43.646 97.1765 42.9924 97.3715 42.3651C97.5666 41.7379 98.3865 41.5524 100.026 41.1813L100.451 41.0853C100.916 40.9799 101.149 40.9272 101.337 40.7852C101.524 40.6432 101.644 40.4279 101.884 39.9975L102.102 39.6056Z" fill="#FDF41A" stroke="#FDF41A" stroke-width="1.5"/>
</g>
<defs>
<clipPath id="clip0_206_1836">
<rect y="36" width="16" height="16" rx="5" fill="white"/>
</clipPath>
<clipPath id="clip1_206_1836">
<rect x="24" y="36" width="16" height="16" rx="5" fill="white"/>
</clipPath>
<clipPath id="clip2_206_1836">
<rect x="48" y="36" width="16" height="16" rx="5" fill="white"/>
</clipPath>
<clipPath id="clip3_206_1836">
<rect x="72" y="36" width="16" height="16" rx="5" fill="white"/>
</clipPath>
<clipPath id="clip4_206_1836">
<rect x="96" y="36" width="16" height="16" rx="5" fill="white"/>
</clipPath>
</defs>
</svg>
